<?xml version="1.0" standalone="no"?><!DOCTYPE svg PUBLIC "-//W3C//DTD SVG 1.1//EN" "http://www.w3.org/Graphics/SVG/1.1/DTD/svg11.dtd"><svg t="1724811012095" class="icon" viewBox="0 0 1024 1024" version="1.1" xmlns="http://www.w3.org/2000/svg" p-id="1932" xmlns:xlink="http://www.w3.org/1999/xlink" width="200" height="200"><path d="M889.794921 12.850864c-6.655826-8.703772-16.895558-13.311652-27.647277-12.799665-10.751719 0.511987-20.479464 6.655826-25.599331 15.871585C743.36675 179.195314 622.589108 235.513841 516.095893 285.176543 446.465714 317.431699 380.931427 348.150896 331.780713 403.957437 276.998145 465.907817 251.398815 549.873621 251.398815 667.579343c0 45.054822 3.583906 95.22951 11.263705 151.03605-140.284332 33.791116-262.597933 14.335625-262.597933 14.335625v127.996653c156.667903 0 287.17329-36.863036 381.890814-76.797992 61.95038-23.551384 117.244934-55.294554 165.371675-91.133616 5.631853-4.095893 8.703772-6.655826 8.703773-6.655826 232.90271-179.707301 308.164741-465.856618 308.164741-465.856618 0 305.604808-222.714176 571.32586-507.327533 666.043383 87.549711 27.647277 168.955582 40.446942 242.118468 36.863036 82.429844-4.095893 155.64393-27.647277 217.59431-70.142166 131.580559-91.133617 206.842591-267.205813 206.842591-483.776149 0.511987-175.099421-49.662701-346.102949-133.628505-456.640859z" fill="#4F95FF" p-id="1933"></path></svg>