<?xml version="1.0" standalone="no"?><!DOCTYPE svg PUBLIC "-//W3C//DTD SVG 1.1//EN" "http://www.w3.org/Graphics/SVG/1.1/DTD/svg11.dtd"><svg t="1724903476456" class="icon" viewBox="0 0 1024 1024" version="1.1" xmlns="http://www.w3.org/2000/svg" p-id="3352" xmlns:xlink="http://www.w3.org/1999/xlink" width="200" height="200"><path d="M391.800919 182.938496c46.037523 0 83.473133-40.449247 83.473133-90.166579 0-49.863664-37.435611-90.24128-83.473133-90.24128-46.15111 0-83.58672 40.377616-83.58672 90.24128C308.214199 142.489248 345.650833 182.938496 391.800919 182.938496z" fill="#464E55" p-id="3353"></path><path d="M624.31553 182.938496c46.113247 0 83.548858-40.449247 83.548858-90.166579 0-49.863664-37.434587-90.24128-83.548858-90.24128-46.149063 0-83.657328 40.377616-83.657328 90.24128C540.658202 142.489248 578.166467 182.938496 624.31553 182.938496z" fill="#464E55" p-id="3354"></path><path d="M939.241083 68.354807c-13.71742-14.856359-36.037774-14.710027-49.792033 0.074701-0.071631 0.145309-0.146333 0.145309-0.146333 0.145309L757.287007 212.063837 514.880095 212.063837l-13.753235 0L258.683109 212.063837 126.776893 68.574818c0 0-0.147356 0-0.220011-0.145309-13.862729-14.785751-36.111452-14.931061-49.827849-0.074701-13.790074 14.930037-13.790074 39.052434 0 53.836139 0.110517 0 0.184195 0.147356 0.184195 0.147356l0 0.147356 203.858968 225.930659-0.282433 623.820762c0 28.462239 21.25407 51.483558 47.656393 51.483558 26.329668 0 47.65844-23.020296 47.65844-51.483558l-0.037862-416.932808 21.328771 0 0 417.445484 0.293689 0.36839c0.331551 27.947516 21.364587 50.452065 47.327912 50.452065 26.181289 0 47.399543-22.871917 47.399543-51.040467l-0.109494-647.425366 16.010649-3.669576 15.981996 3.669576-0.073678 647.425366c0 28.16855 21.144576 51.040467 47.324842 51.040467 26.000164 0 46.997384-22.50455 47.364751-50.452065l0.330528-0.36839L618.946242 555.303248l21.328771 0-0.072655 416.932808c0 28.462239 21.328771 51.483558 47.656393 51.483558 26.403347 0 47.65844-23.020296 47.65844-51.483558l-0.319272-623.856577 203.966415-225.894843-0.071631-0.147356c0.071631 0 0.110517-0.147356 0.147356-0.147356C953.065949 107.407242 953.065949 83.283822 939.241083 68.354807z" fill="#464E55" p-id="3355"></path></svg>