<?xml version="1.0" standalone="no"?><!DOCTYPE svg PUBLIC "-//W3C//DTD SVG 1.1//EN" "http://www.w3.org/Graphics/SVG/1.1/DTD/svg11.dtd"><svg t="1724935475947" class="icon" viewBox="0 0 1621 1024" version="1.1" xmlns="http://www.w3.org/2000/svg" p-id="4269" xmlns:xlink="http://www.w3.org/1999/xlink" width="316.6015625" height="200"><path d="M1109.333333 1024H512V490.666667l170.666667-128v-3.84l-85.333334-85.333334V110.506667L707.84 0h205.653333L1024 110.506667v162.986666l-85.333333 85.333334v3.84l170.666666 128z m-512-85.333333h426.666667v-405.333334l-170.666667-128V323.84l85.333334-85.333333V145.493333L878.506667 85.333333h-135.68L682.666667 145.493333v93.013334l85.333333 85.333333V405.333333l-170.666667 128zM1621.333333 1024H1194.666667v-85.333333h341.333333v-277.333334l-170.666667-128v-81.493333l85.333334-85.333333V273.493333L1390.506667 213.333333h-135.68L1194.666667 273.493333v93.013334l85.333333 85.333333V597.333333h-85.333333v-110.506666l-85.333334-85.333334V238.506667L1219.84 128h205.653333L1536 238.506667v162.986666l-85.333333 85.333334v3.84l170.666666 128V1024zM426.666667 1024H0v-405.333333l170.666667-128v-3.84l-85.333334-85.333334V238.506667L195.84 128h205.653333L512 238.506667v162.986666l-85.333333 85.333334V597.333333H341.333333v-145.493333l85.333334-85.333333V273.493333L366.506667 213.333333H230.826667L170.666667 273.493333v93.013334l85.333333 85.333333v81.493333l-170.666667 128V938.666667h341.333334v85.333333z" fill="#54C3F1" p-id="4270"></path></svg>